<?xml version="1.0" encoding="UTF-8"?>
<svg width="158px" height="36px" viewBox="0 0 158 36" version="1.1" xmlns="http://www.w3.org/2000/svg" xmlns:xlink="http://www.w3.org/1999/xlink">
    <!-- Generator: Sketch 52.6 (67491) - http://www.bohemiancoding.com/sketch -->
    <title>Group@1x</title>
    <desc>Created with Sketch.</desc>
    <g id="design" stroke="none" stroke-width="1" fill="none" fill-rule="evenodd">
        <g id="proposition-design" transform="translate(-13.000000, -10.000000)">
            <g id="Group" transform="translate(13.000000, 10.000000)">
                <path d="M51.1511379,20.4803455 L51.1511379,18.8554364 L46.9935586,18.8554364 C44.7619448,18.8554364 43.5960138,19.5410727 43.5960138,21.0383455 C43.5960138,22.5110727 44.7875517,23.5005273 46.6639379,23.5005273 C48.9206138,23.5005273 50.6439034,22.3839818 51.1511379,20.4803455 Z M51.1767448,25.0747091 L51.1767448,22.9932545 C50.1121517,24.4403455 48.4133793,25.1510727 46.2831034,25.1510727 C43.5197379,25.1510727 41.7452345,23.3996182 41.7452345,21.1147091 C41.7452345,18.7796182 43.5960138,17.3074364 46.739669,17.2823455 L51.1260759,17.2823455 L51.1260759,16.4445273 C51.1260759,14.4901636 49.908931,13.2967091 47.5514621,13.2967091 C46.0804276,13.2967091 44.7118207,13.8552545 43.3170621,14.8452545 L42.4802069,13.4488909 C44.2045862,12.3072545 45.649469,11.6472545 47.9317517,11.6472545 C51.2274138,11.6472545 53.0525862,13.3987091 53.0781931,16.2416182 L53.1038,25.0747091 L51.1767448,25.0747091 Z M62.1796469,18.2974364 L59.3656124,21.2161636 L59.3656124,25.0747091 L57.3878883,25.0747091 L57.3878883,6.24070909 L59.3656124,6.24070909 L59.3656124,18.6525273 L66.2364331,11.7230727 L68.56884,11.7230727 L63.5744055,16.8759818 L69.1016814,25.0747091 L66.7431228,25.0747091 L62.1796469,18.2974364 Z M71.1038683,11.7232364 L75.0593166,23.0692364 L78.938489,11.7232364 L81.0170062,11.7232364 L84.9468476,23.0692364 L88.8516269,11.7232364 L90.9056269,11.7232364 L85.9618614,25.0748727 L83.9078614,25.0748727 L79.97802,14.1341455 L76.0732407,25.0748727 L74.0203303,25.0748727 L69.025351,11.7232364 L71.1038683,11.7232364 Z M100.919885,20.4803455 L100.919885,18.8554364 L96.7617607,18.8554364 C94.5306917,18.8554364 93.3642159,19.5410727 93.3642159,21.0383455 C93.3642159,22.5110727 94.5557538,23.5005273 96.43214,23.5005273 C98.6888159,23.5005273 100.41265,22.3839818 100.919885,20.4803455 Z M100.945492,25.0747091 L100.945492,22.9932545 C99.8803538,24.4403455 98.1821262,25.1510727 96.0518503,25.1510727 C93.2884848,25.1510727 91.5134366,23.3996182 91.5134366,21.1147091 C91.5134366,18.7796182 93.3642159,17.3074364 96.507871,17.2823455 L100.894278,17.2823455 L100.894278,16.4445273 C100.894278,14.4901636 99.6776779,13.2967091 97.3196641,13.2967091 C95.8486297,13.2967091 94.4805676,13.8552545 93.0852641,14.8452545 L92.2489538,13.4488909 C93.9727883,12.3072545 95.4182159,11.6472545 97.6999538,11.6472545 C100.996161,11.6472545 102.821333,13.3987091 102.84694,16.2416182 L102.872002,25.0747091 L100.945492,25.0747091 Z M113.926063,24.1610727 C112.987326,24.7954364 111.973401,25.1505273 110.908808,25.1505273 C108.956691,25.1761636 107.511808,24.0083455 107.511808,21.3688909 L107.511808,13.6774364 L105.584208,13.6774364 L105.584208,12.1288909 L107.511808,12.1288909 L107.511808,8.62652727 L109.463926,8.62652727 L109.463926,12.1288909 L113.697781,12.1288909 L113.697781,13.6774364 L109.463926,13.6774364 L109.463926,21.0383455 C109.463926,22.6632545 110.09756,23.3232545 111.238429,23.3232545 C111.922732,23.2981636 112.632643,23.0690727 113.36816,22.6381636 L113.926063,24.1610727 Z M116.917276,30.0753273 C115.801469,30.0753273 114.913945,29.7704182 114.103241,29.1104182 L114.939552,27.5367818 C115.547579,27.9682364 116.156697,28.1716909 116.815393,28.1716909 C117.855469,28.1716909 118.717386,27.5111455 119.249683,26.2424182 L119.807586,24.9731455 L114.28031,11.7229636 L116.359372,11.7229636 L120.795903,22.8404182 L125.030303,11.7229636 L127.058697,11.7229636 L120.923393,26.9782364 C120.085993,29.0089636 118.692324,30.0753273 116.917276,30.0753273 Z M140.800283,18.3736364 C140.800283,15.4794545 138.822559,13.3478182 136.034132,13.3478182 C133.219552,13.3478182 131.241828,15.4543636 131.241828,18.3736364 C131.241828,21.3174545 133.219552,23.3994545 136.034132,23.3994545 C138.822559,23.3994545 140.800283,21.2929091 140.800283,18.3736364 Z M142.803614,18.4243636 C142.803614,22.3843636 140.217318,25.1509091 136.438939,25.1509091 C134.055863,25.1509091 132.23069,24.0594545 131.241828,22.206 L131.241828,29.9983636 L129.264104,29.9983636 L129.264104,11.7234545 L131.241828,11.7234545 L131.241828,14.5914545 C132.23069,12.7385455 134.055863,11.6470909 136.388814,11.6470909 C140.166104,11.6470909 142.803614,14.4387273 142.803614,18.4243636 Z M155.758034,17.5612909 C155.631634,14.9725636 153.907255,13.2969273 151.296441,13.2969273 C148.734662,13.2969273 146.90949,14.9725636 146.630538,17.5612909 L155.758034,17.5612909 Z M157.533083,19.1349273 L146.630538,19.1349273 C146.960703,21.7749273 148.862152,23.5007455 151.47351,23.5007455 C153.121069,23.5007455 154.565952,22.8914727 155.606028,21.8000182 L156.696228,22.9422 C155.428414,24.3385636 153.552028,25.1507455 151.320959,25.1507455 C147.391662,25.1507455 144.678421,22.3842 144.678421,18.3985636 C144.678421,14.4134727 147.416179,11.6720182 151.296441,11.6469273 C155.606028,11.6469273 157.735759,14.6169273 157.533083,19.1349273 Z" id="Combined-Shape" fill="#545454"></path>
                <path d="M17.5170786,2.6172 C8.99869931,2.6172 2.06903724,9.55538182 2.06903724,18.0830182 C2.06903724,26.6112 8.99869931,33.5493818 17.5170786,33.5493818 C26.0354579,33.5493818 32.9656648,26.6112 32.9656648,18.0830182 C32.9656648,9.55538182 26.0354579,2.6172 17.5170786,2.6172 Z M17.5170786,35.6210182 C7.85783034,35.6210182 0.000326896552,27.7539273 0.000326896552,18.0830182 C0.000326896552,8.41265455 7.85783034,0.545563636 17.5170786,0.545563636 C27.1763269,0.545563636 35.03492,8.41265455 35.03492,18.0830182 C35.03492,27.7539273 27.1763269,35.6210182 17.5170786,35.6210182 Z M8.28802621,25.4064545 C8.09134345,25.4064545 7.89193655,25.3562727 7.70941931,25.251 C7.15532966,24.9302727 6.96518483,24.2211818 7.28554345,23.6664545 L16.5138331,7.66336364 C16.7208676,7.30390909 17.1033366,7.08354545 17.5168607,7.08354545 C17.9309297,7.08354545 18.3133986,7.30390909 18.5204331,7.66336364 L27.7498124,23.6664545 C27.9563021,24.0253636 27.9563021,24.4671818 27.7498124,24.8266364 C27.5427779,25.1855455 27.1597641,25.4064545 26.7456952,25.4064545 L20.5935021,25.4064545 C20.1794331,25.4064545 19.7969641,25.1855455 19.5899297,24.8266364 L16.5138331,19.4920909 C16.1940193,18.9373636 16.3836193,18.2277273 16.937709,17.907 C17.4934331,17.5862727 18.2006193,17.7777273 18.5204331,18.3313636 L21.2620055,23.0860909 L24.7385503,23.0860909 L17.5168607,10.5635455 L9.29268828,24.8266364 C9.07802621,25.1980909 8.68792966,25.4064545 8.28802621,25.4064545 Z" id="Combined-Shape" fill="#FF5000"></path>
            </g>
        </g>
    </g>
</svg>