<?xml version="1.0" encoding="UTF-8" standalone="no"?>
<!DOCTYPE svg PUBLIC "-//W3C//DTD SVG 1.1//EN"
 "http://www.w3.org/Graphics/SVG/1.1/DTD/svg11.dtd">
<!-- Generated by graphviz version 2.40.1 (20161225.0304)
 -->
<!-- Title: AkwatypeModel Pages: 1 -->
<svg width="144pt" height="233pt"
 viewBox="0.00 0.00 144.00 233.00" xmlns="http://www.w3.org/2000/svg" xmlns:xlink="http://www.w3.org/1999/xlink">
<g id="graph0" class="graph" transform="scale(1 1) rotate(0) translate(4 229)">
<title>AkwatypeModel</title>
<!-- Student -->
<g id="Student" class="node">
<title>Student</title>
<polygon fill="#edc35b" stroke="transparent" points="13,-70.5 13,-96.5 123,-96.5 123,-70.5 13,-70.5"/>
<polygon fill="none" stroke="#edc35b" points="13,-70.5 13,-96.5 123,-96.5 123,-70.5 13,-70.5"/>
<text text-anchor="start" x="43.5" y="-81.1" font-family="Roboto" font-weight="bold" font-size="13.00" fill="#404040"> Student</text>
<polygon fill="#ffffff" stroke="transparent" points="13,-45.5 13,-70.5 123,-70.5 123,-45.5 13,-45.5"/>
<polygon fill="none" stroke="#c0c0c0" points="13,-45.5 13,-70.5 123,-70.5 123,-45.5 13,-45.5"/>
<text text-anchor="start" x="19" y="-55.9" font-family="Roboto" font-size="12.00" fill="#7c7c7c">Tutorial&#45;5mn</text>
<text text-anchor="start" x="87" y="-55.9" font-family="Roboto" font-size="12.00" fill="#000000"> &#160;&#160;&#160;</text>
<polygon fill="#ffffff" stroke="transparent" points="13,-3.5 13,-45.5 123,-45.5 123,-3.5 13,-3.5"/>
<polygon fill="none" stroke="#c0c0c0" points="13,-3.5 13,-45.5 123,-45.5 123,-3.5 13,-3.5"/>
<text text-anchor="start" x="19" y="-28.5" font-family="Roboto" font-weight="bold" font-size="12.00" fill="#404040">firstname</text>
<text text-anchor="start" x="72" y="-28.5" font-family="Roboto" font-size="12.00" fill="#808080"> : String</text>
<text text-anchor="start" x="113" y="-28.5" font-family="Roboto" font-size="15.00" fill="#000000"> </text>
<text text-anchor="start" x="19" y="-13.5" font-family="Roboto" font-weight="bold" font-size="12.00" fill="#404040">lastname</text>
<text text-anchor="start" x="70" y="-13.5" font-family="Roboto" font-size="12.00" fill="#808080"> : String</text>
<text text-anchor="start" x="111" y="-13.5" font-family="Roboto" font-size="15.00" fill="#000000"> </text>
</g>
<!-- School -->
<g id="School" class="node">
<title>School</title>
<polygon fill="#edc35b" stroke="transparent" points="8,-195 8,-221 128,-221 128,-195 8,-195"/>
<polygon fill="none" stroke="#edc35b" points="8,-195 8,-221 128,-221 128,-195 8,-195"/>
<text text-anchor="start" x="46" y="-205.6" font-family="Roboto" font-weight="bold" font-size="13.00" fill="#404040"> School</text>
<polygon fill="#ffffff" stroke="transparent" points="8,-170 8,-195 128,-195 128,-170 8,-170"/>
<polygon fill="none" stroke="#c0c0c0" points="8,-170 8,-195 128,-195 128,-170 8,-170"/>
<text text-anchor="start" x="14" y="-180.4" font-family="Roboto" font-size="12.00" fill="#7c7c7c">Tutorial&#45;5mn</text>
<text text-anchor="start" x="82" y="-180.4" font-family="Roboto" font-size="12.00" fill="#000000"> &#160;&#160;&#160;</text>
<polygon fill="#ffffff" stroke="transparent" points="8,-141 8,-170 128,-170 128,-141 8,-141"/>
<polygon fill="none" stroke="#c0c0c0" points="8,-141 8,-170 128,-170 128,-141 8,-141"/>
<text text-anchor="start" x="14" y="-153" font-family="Roboto" font-weight="bold" font-size="12.00" fill="#404040">students</text>
<text text-anchor="start" x="61" y="-153" font-family="Roboto" font-size="12.00" fill="#808080"> : [Student]</text>
<text text-anchor="start" x="118" y="-153" font-family="Roboto" font-size="15.00" fill="#000000"> </text>
</g>
<!-- School&#45;&gt;Student -->
<g id="edge1" class="edge">
<title>School&#45;&gt;Student</title>
<path fill="none" stroke="#7f7f7f" d="M68,-136.8187C68,-128.723 68,-120.1426 68,-111.655"/>
<polygon fill="#7f7f7f" stroke="#7f7f7f" points="71.5001,-111.3868 68,-101.3868 64.5001,-111.3868 71.5001,-111.3868"/>
<text text-anchor="middle" x="73.9167" y="-112.1751" font-family="Roboto" font-size="8.00" fill="#000000">*</text>
</g>
</g>
</svg>
