<svg width="158" height="36" viewBox="0 0 158 36" xmlns="http://www.w3.org/2000/svg"><g fill="none" fill-rule="evenodd"><path d="M51.151 20.48v-1.625h-4.157c-2.232 0-3.398.686-3.398 2.183 0 1.473 1.192 2.463 3.068 2.463 2.257 0 3.98-1.117 4.487-3.02zm.026 4.595v-2.082c-1.065 1.447-2.764 2.158-4.894 2.158-2.763 0-4.538-1.751-4.538-4.036 0-2.335 1.851-3.808 4.995-3.833h4.386v-.837c0-1.955-1.217-3.148-3.575-3.148-1.47 0-2.84.558-4.234 1.548l-.837-1.396c1.725-1.142 3.17-1.802 5.452-1.802 3.295 0 5.12 1.752 5.146 4.595l.026 8.833h-1.927zm11.003-6.778l-2.814 2.92v3.858h-1.978V6.24h1.978v12.412l6.87-6.93h2.333l-4.995 5.153 5.528 8.199h-2.359l-4.563-6.778zm8.924-6.574l3.955 11.346 3.88-11.346h2.078l3.93 11.346 3.905-11.346h2.054l-4.944 13.352h-2.054l-3.93-10.94-3.905 10.94H74.02l-4.995-13.352h2.079zm29.816 8.757v-1.625h-4.158c-2.231 0-3.398.686-3.398 2.183 0 1.473 1.192 2.463 3.068 2.463 2.257 0 3.98-1.117 4.488-3.02zm.025 4.595v-2.082c-1.065 1.447-2.763 2.158-4.893 2.158-2.764 0-4.539-1.751-4.539-4.036 0-2.335 1.851-3.808 4.995-3.833h4.386v-.837c0-1.955-1.216-3.148-3.574-3.148-1.471 0-2.84.558-4.235 1.548l-.836-1.396c1.724-1.142 3.17-1.802 5.451-1.802 3.296 0 5.121 1.752 5.147 4.595l.025 8.833h-1.927zm12.981-.914c-.939.634-1.953.99-3.017.99-1.952.025-3.397-1.143-3.397-3.782v-7.692h-1.928V12.13h1.928V8.627h1.952v3.502h4.234v1.548h-4.234v7.361c0 1.625.634 2.285 1.774 2.285.685-.025 1.395-.254 2.13-.685l.558 1.523zm2.991 5.914c-1.116 0-2.003-.305-2.814-.965l.837-1.573c.608.431 1.217.635 1.875.635 1.04 0 1.902-.66 2.435-1.93l.558-1.269-5.528-13.25h2.08l4.436 11.117 4.234-11.117h2.029l-6.136 15.255c-.837 2.031-2.23 3.097-4.006 3.097zM140.8 18.374c0-2.895-1.977-5.026-4.766-5.026-2.814 0-4.792 2.106-4.792 5.026 0 2.943 1.978 5.025 4.792 5.025 2.789 0 4.766-2.106 4.766-5.025zm2.004.05c0 3.96-2.587 6.727-6.365 6.727-2.383 0-4.208-1.092-5.197-2.945v7.792h-1.978V11.723h1.978v2.868c.989-1.852 2.814-2.944 5.147-2.944 3.777 0 6.415 2.792 6.415 6.777zm12.954-.863c-.126-2.588-1.85-4.264-4.462-4.264-2.561 0-4.387 1.676-4.665 4.264h9.127zm1.775 1.574h-10.902c.33 2.64 2.231 4.366 4.843 4.366 1.647 0 3.092-.61 4.132-1.701l1.09 1.142c-1.268 1.397-3.144 2.209-5.375 2.209-3.93 0-6.643-2.767-6.643-6.752 0-3.986 2.738-6.727 6.618-6.752 4.31 0 6.44 2.97 6.237 7.488z" fill="#545454"/><path d="M17.517 2.617C9 2.617 2.07 9.555 2.07 18.083c0 8.528 6.93 15.466 15.448 15.466s15.449-6.938 15.449-15.466c0-8.528-6.93-15.466-15.449-15.466zm0 33.004C7.857 35.621 0 27.754 0 18.083 0 8.413 7.858.546 17.517.546c9.66 0 17.518 7.867 17.518 17.537 0 9.67-7.859 17.538-17.518 17.538zM8.288 25.406a1.16 1.16 0 01-1.002-1.74l9.228-16.003a1.157 1.157 0 012.006 0l9.23 16.003a1.16 1.16 0 01-1.004 1.74h-6.152c-.415 0-.797-.22-1.004-.58l-3.076-5.334a1.158 1.158 0 112.007-1.16l2.741 4.754h3.477l-7.222-12.522-8.224 14.263a1.16 1.16 0 01-1.005.58z" fill="#FF5000"/></g></svg>